<svg width="58" height="58" viewBox="0 0 58 58" fill="none" xmlns="http://www.w3.org/2000/svg">
<path id="Vector" d="M55.5453 9.7753C57.7802 7.54043 57.7802 3.91101 55.5453 1.67615C53.3105 -0.558716 49.681 -0.558716 47.4462 1.67615L28.6197 20.5205L9.7753 1.69403C7.54043 -0.540838 3.91101 -0.540838 1.67615 1.69403C-0.558716 3.92889 -0.558716 7.55831 1.67615 9.79318L20.5205 28.6197L1.69403 47.4641C-0.540837 49.6989 -0.540837 53.3283 1.69403 55.5632C3.92889 57.7981 7.55831 57.7981 9.79318 55.5632L28.6197 36.7188L47.4641 55.5453C49.6989 57.7802 53.3283 57.7802 55.5632 55.5453C57.7981 53.3105 57.7981 49.681 55.5632 47.4462L36.7188 28.6197L55.5453 9.7753Z" fill="#E39C9D"/>
</svg>
