<svg width="21" height="38" viewBox="0 0 21 38" fill="none" xmlns="http://www.w3.org/2000/svg">
<g id="Capa_2" clip-path="url(#clip0_57_900)">
<path id="Vector" fill-rule="evenodd" clip-rule="evenodd" d="M21 9.16343V5.73231C21 5.34878 20.7239 5.02972 20.3635 4.95367V3.08809C20.3635 1.38947 18.9741 0 17.2754 0H3.08809C1.38948 0 0 1.38947 0 3.08809V33.9425C0 35.6411 1.38948 37.0306 3.08809 37.0306H17.2754C18.9741 37.0306 20.3635 35.6411 20.3635 33.9425V14.394C20.7248 14.3163 21 13.9915 21 13.6079V11.5704C21 11.1869 20.7239 10.8687 20.3635 10.7918V9.94123C20.7239 9.86519 21 9.54613 21 9.1626V9.16343ZM18.1954 33.9425C18.1954 34.4484 17.7813 34.8617 17.2763 34.8617H3.08809C2.58222 34.8617 2.16894 34.4476 2.16894 33.9425V25.5768C2.16894 25.5371 2.1615 25.4982 2.15736 25.4594V9.57506C2.16067 9.55522 2.16894 9.53704 2.16894 9.51637V3.08809C2.16894 2.58222 2.58305 2.16894 3.08809 2.16894H5.50913C5.96292 2.90046 6.76305 3.34515 7.62351 3.34515H12.6367C13.5187 3.34515 14.3436 2.9112 14.8437 2.18547L14.8552 2.16976H17.2754C17.7813 2.16976 18.1946 2.58305 18.1946 3.08892V33.9434L18.1954 33.9425Z" fill="#E39C9D"/>
<path id="Vector_2" d="M9.83901 18.8947L6.7534 17.3515C6.68645 17.3185 6.61288 17.3209 6.54924 17.3606C6.48559 17.4003 6.44922 17.4648 6.44922 17.5392V21.1546C6.44922 21.2802 6.517 21.3968 6.62693 21.4588L9.78445 23.2334C9.82909 23.2582 9.87951 23.2582 9.92415 23.2318C9.96878 23.2062 9.99358 23.1624 9.99358 23.1111V19.1444C9.99358 19.0353 9.93572 18.9427 9.83818 18.8939L9.83901 18.8947Z" fill="#E39C9D"/>
<path id="Vector_3" fill-rule="evenodd" clip-rule="evenodd" d="M13.74 17.3514L10.6536 18.8946C10.5594 18.9417 10.499 19.0384 10.499 19.1442V23.1118C10.499 23.163 10.5246 23.2068 10.5685 23.2325C10.6123 23.2581 10.6635 23.2589 10.7081 23.2333L13.8657 21.4586C13.9756 21.3966 14.0434 21.2801 14.0434 21.1544V17.539C14.0434 17.4638 14.0078 17.3993 13.9434 17.3605C13.8797 17.3208 13.8062 17.3175 13.7392 17.3514H13.74Z" fill="#E39C9D"/>
<path id="Vector_4" fill-rule="evenodd" clip-rule="evenodd" d="M13.5909 16.5287L10.435 14.7359C10.3226 14.6714 10.1945 14.6714 10.0812 14.7359L6.92537 16.5287C6.89148 16.5477 6.87247 16.5833 6.87412 16.6229C6.87495 16.6626 6.89644 16.6957 6.93198 16.713L10.1333 18.3133C10.2143 18.3538 10.3019 18.3538 10.3829 18.3133L13.5843 16.713C13.6198 16.6957 13.6405 16.6626 13.6421 16.6229C13.6438 16.5833 13.6248 16.5485 13.5909 16.5287Z" fill="#E39C9D"/>
<path id="Vector_5" d="M16.4411 11.5356H13.0108C12.8 11.5356 12.6289 11.7067 12.6289 11.9175V12.5523C12.6289 12.7631 12.8 12.9342 13.0108 12.9342H15.4252V15.3486C15.4252 15.5594 15.5963 15.7305 15.8071 15.7305H16.4419C16.6527 15.7305 16.8238 15.5594 16.8238 15.3486V11.9183C16.8238 11.7076 16.6527 11.5365 16.4419 11.5365L16.4411 11.5356Z" fill="#E39C9D"/>
<path id="Vector_6" d="M4.05165 26.4048H7.48194C7.69272 26.4048 7.86382 26.2337 7.86382 26.023V25.3881C7.86382 25.1774 7.69272 25.0063 7.48194 25.0063H5.06751V22.5918C5.06751 22.3811 4.89641 22.21 4.68563 22.21H4.05082C3.84005 22.21 3.66895 22.3811 3.66895 22.5918V26.0221C3.66895 26.2329 3.84005 26.404 4.05082 26.404L4.05165 26.4048Z" fill="#E39C9D"/>
<path id="Vector_7" d="M16.8228 26.0226V22.5923C16.8228 22.3816 16.6517 22.2104 16.4409 22.2104H15.8061C15.5953 22.2104 15.4242 22.3816 15.4242 22.5923V25.0068H13.0098C12.799 25.0068 12.6279 25.1779 12.6279 25.3886V26.0234C12.6279 26.2342 12.799 26.4053 13.0098 26.4053H16.4401C16.6509 26.4053 16.822 26.2342 16.822 26.0234L16.8228 26.0226Z" fill="#E39C9D"/>
<path id="Vector_8" d="M3.66895 11.9174V15.3477C3.66895 15.5584 3.84005 15.7295 4.05082 15.7295H4.68563C4.89641 15.7295 5.06751 15.5584 5.06751 15.3477V12.9332H7.48194C7.69272 12.9332 7.86382 12.7621 7.86382 12.5514V11.9165C7.86382 11.7058 7.69272 11.5347 7.48194 11.5347H4.05165C3.84087 11.5347 3.66977 11.7058 3.66977 11.9165L3.66895 11.9174Z" fill="#E39C9D"/>
</g>
<defs>
<clipPath id="clip0_57_900">
<rect width="21" height="37.0306" fill="white"/>
</clipPath>
</defs>
</svg>
