<svg width="65" height="62" viewBox="0 0 65 62" fill="none" xmlns="http://www.w3.org/2000/svg">
<g id="&#240;&#159;&#166;&#134; icon &#34;Alternate Phone&#34;">
<path id="Vector" d="M62.5615 43.8114L48.4742 37.9988C47.8724 37.7519 47.2036 37.6998 46.5684 37.8505C45.9332 38.0012 45.3661 38.3465 44.9524 38.8344L38.7137 46.1728C28.9227 41.7283 21.0432 34.1422 16.4268 24.7158L24.049 18.7094C24.5568 18.3118 24.9162 17.7658 25.0728 17.154C25.2294 16.5422 25.1747 15.8979 24.9169 15.3187L18.8795 1.756C18.5966 1.13164 18.0964 0.621874 17.4649 0.314597C16.8335 0.00732043 16.1105 -0.0782043 15.4206 0.0727705L2.3395 2.97907C1.67434 3.12695 1.08088 3.48753 0.655985 4.00195C0.231089 4.51637 -0.000153226 5.15426 7.61747e-08 5.8115C7.61747e-08 36.8726 26.1496 62 58.3617 62C59.0446 62.0004 59.7074 61.7779 60.242 61.3688C60.7766 60.9597 61.1513 60.3882 61.3049 59.7476L64.3237 47.1536C64.4795 46.4862 64.3887 45.7873 64.0671 45.1773C63.7455 44.5673 63.2131 44.0843 62.5615 43.8114Z" fill="#E39C9D"/>
</g>
</svg>
