<svg width="25" height="25" viewBox="0 0 25 25" fill="none" xmlns="http://www.w3.org/2000/svg">
<g id="heart-solid 1">
<path id="Vector" d="M2.32422 14.6679L11.1475 22.9052C11.5137 23.247 11.9971 23.4375 12.5 23.4375C13.0029 23.4375 13.4863 23.247 13.8525 22.9052L22.6758 14.6679C24.1602 13.2861 25 11.3476 25 9.32125V9.03804C25 5.62496 22.5342 2.7148 19.1699 2.15328C16.9434 1.78218 14.6777 2.50972 13.0859 4.10152L12.5 4.68746L11.9141 4.10152C10.3223 2.50972 8.05664 1.78218 5.83008 2.15328C2.46582 2.7148 0 5.62496 0 9.03804V9.32125C0 11.3476 0.839844 13.2861 2.32422 14.6679Z" fill="#E39C9D"/>
</g>
</svg>
