<svg width="38" height="28" viewBox="0 0 38 28" fill="none" xmlns="http://www.w3.org/2000/svg">
<g id="Capa_1" clip-path="url(#clip0_57_875)">
<path id="Vector" d="M22.7154 22.2811H15.2821C15.2111 22.2811 15.1757 22.314 15.1712 22.3769C15.0437 24.6358 13.6125 26.4536 11.2379 27.1523C8.08496 28.0827 4.809 26.4037 3.98752 23.5198C3.85227 23.0467 3.78908 22.3739 3.80127 21.4995C3.82566 19.6029 3.82788 17.6114 3.80682 15.5262C3.80682 15.4593 3.8434 15.4263 3.91768 15.4263H6.52625C6.58944 15.4263 6.62159 15.4553 6.62159 15.5122L6.61937 17.7482C6.61937 17.7981 6.67813 17.829 6.72802 17.8051C9.45077 16.4116 12.6901 17.272 14.3265 19.6198C14.3664 19.6767 14.4351 19.7107 14.5094 19.7107H20.9892C21.4881 19.7107 21.8928 19.3453 21.8928 18.8971V3.38595C21.8928 2.93675 21.4892 2.57341 20.9903 2.5754C16.5692 2.5774 12.1026 2.5774 7.59495 2.5754C6.9575 2.5754 6.63157 2.86688 6.62048 3.44884C6.61272 3.89304 6.6105 4.42409 6.61715 5.04198C6.61715 5.09987 6.66815 5.14679 6.73134 5.14479H14.0659C14.7145 5.14479 15.0936 5.42629 15.2023 5.98628C15.2045 5.99826 15.2045 6.01224 15.2023 6.02521C15.0748 6.57323 14.7378 6.84974 14.1912 6.85073C9.70576 6.86072 5.30566 6.86072 0.992042 6.85273C-0.31169 6.85073 -0.388184 5.15478 1.10401 5.14779C1.99423 5.1428 2.8778 5.1428 3.7536 5.14479C3.78353 5.14479 3.80903 5.12383 3.81014 5.09688C3.83675 4.27635 3.7148 3.37297 3.94539 2.60535C4.29017 1.45541 5.09281 0.663831 6.35109 0.228612C6.77014 0.082873 7.48187 0.00800732 8.48406 -0.000976562C8.48406 -0.000976562 12.3132 0.00101986 19.9715 0.00401448C20.9804 0.00401448 21.6943 0.0758856 22.1123 0.21863C23.9337 0.835523 24.763 2.22703 24.7064 3.93197C24.6953 4.28833 24.6909 4.65867 24.6965 5.04397C24.6987 5.11784 24.7397 5.15378 24.8217 5.15178C25.7485 5.13281 26.6199 5.13681 27.4381 5.16376C28.336 5.1947 29.0522 5.54408 29.6719 6.09908C31.6264 7.84994 33.4589 9.50597 35.1695 11.0662C35.8092 11.6501 36.1263 12.3888 36.1252 13.2832C36.1174 15.4523 36.1152 17.5655 36.1196 19.6198C36.1196 19.6837 36.154 19.7127 36.2238 19.7107C36.9677 19.6847 37.4854 19.8873 37.7748 20.3176C38.0541 20.7318 38.0719 21.1551 37.8258 21.5893C37.5653 22.0485 37.0741 22.2781 36.3524 22.2801C35.6485 22.2821 34.9689 22.2801 34.3159 22.2781C34.2527 22.2761 34.1995 22.323 34.1962 22.3789C34.1274 23.6845 33.6518 24.7866 32.7672 25.683C30.8836 27.5935 27.754 27.9499 25.3971 26.5554C23.8173 25.6211 22.9626 24.2316 22.8351 22.3849C22.8318 22.315 22.7918 22.2801 22.7131 22.2801M24.6987 12.8021C24.6987 12.833 24.7253 12.857 24.7596 12.857H33.0554C33.1086 12.857 33.1352 12.7991 33.0975 12.7631L27.5046 7.73415C27.4935 7.72417 27.478 7.71918 27.4624 7.71918L24.7596 7.71618C24.7253 7.71618 24.6987 7.74014 24.6987 7.77108V12.8041M12.3786 22.2811C12.3786 20.8466 11.086 19.6837 9.49401 19.6837C7.90204 19.6837 6.60939 20.8476 6.60939 22.2811C6.60939 23.7145 7.90204 24.8784 9.49401 24.8784C11.086 24.8784 12.3786 23.7145 12.3786 22.2811ZM31.4091 22.2811C31.4091 20.8466 30.1165 19.6837 28.5245 19.6837C26.9325 19.6837 25.6399 20.8476 25.6399 22.2811C25.6399 23.7145 26.9325 24.8784 28.5245 24.8784C30.1165 24.8784 31.4091 23.7145 31.4091 22.2811Z" fill="#E39C9D"/>
<path id="Vector_2" d="M17.0792 9.44315C17.0792 9.90732 16.6601 10.2846 16.1446 10.2846H2.8457C2.33019 10.2846 1.91113 9.90732 1.91113 9.44315V9.4162C1.91113 8.95203 2.33019 8.57471 2.8457 8.57471H16.1446C16.6601 8.57471 17.0792 8.95203 17.0792 9.4162V9.44315Z" fill="#E39C9D"/>
<path id="Vector_3" d="M15.1733 12.8821C15.1733 13.3463 14.7531 13.7236 14.2376 13.7216L0.943088 13.7006C0.427581 13.6986 0.0107422 13.3223 0.0107422 12.8582V12.8312C0.0107422 12.367 0.430907 11.9897 0.946413 11.9917L14.2409 12.0127C14.7564 12.0147 15.1733 12.391 15.1733 12.8552V12.8821Z" fill="#E39C9D"/>
</g>
<defs>
<clipPath id="clip0_57_875">
<rect width="38" height="27.4098" fill="white"/>
</clipPath>
</defs>
</svg>
