<svg width="15" height="13" viewBox="0 0 15 13" fill="none" xmlns="http://www.w3.org/2000/svg">
<g id="Capa_1" clip-path="url(#clip0_261_7872)">
<path id="Vector" d="M10.2657 1.34749C10.5375 0.235089 11.792 -0.342234 12.8058 0.214886C13.2497 0.458549 13.5411 0.836289 13.6801 1.3481C13.6844 1.36402 13.6984 1.37443 13.715 1.37504C13.9739 1.37627 14.2525 1.37504 14.5513 1.37137C14.7459 1.36953 14.9149 1.43504 14.9792 1.63462C15.0214 1.76441 15.0006 1.88318 14.9155 1.99094C14.7833 2.1593 14.6241 2.13175 14.3884 2.13297C14.1852 2.1342 13.9648 2.13297 13.7278 2.13052C13.699 2.13052 13.6813 2.14399 13.6746 2.17154C13.3905 3.30843 12.0993 3.85453 11.0916 3.26558C10.6722 3.0213 10.3961 2.65213 10.2633 2.15868C10.2596 2.14399 10.2461 2.1342 10.2314 2.1342C6.97626 2.13297 3.71068 2.13236 0.434692 2.13236C-0.140182 2.13236 -0.126713 1.37137 0.407143 1.37198C3.61334 1.37382 6.88871 1.37382 10.2339 1.37198C10.2492 1.37198 10.262 1.36157 10.2657 1.34688M12.9607 1.75401C12.9607 1.20729 12.5175 0.764047 11.9708 0.764047C11.424 0.764047 10.9808 1.20729 10.9808 1.75401C10.9808 2.30072 11.424 2.74397 11.9708 2.74397C12.5175 2.74397 12.9607 2.30072 12.9607 1.75401Z" fill="#E39C9D"/>
<path id="Vector_2" d="M1.4999 5.87363C1.65969 5.34467 1.96029 4.95469 2.46659 4.70797C2.87005 4.51083 3.38799 4.49063 3.80552 4.64919C4.37182 4.86408 4.74038 5.27427 4.9118 5.88098C4.91731 5.89996 4.93445 5.91281 4.95343 5.91281C8.17432 5.91098 11.3805 5.91098 14.5708 5.91159C15.1457 5.9122 15.1249 6.67564 14.6106 6.67564C11.4142 6.67809 8.19269 6.6787 4.9467 6.67809C4.92772 6.67809 4.91547 6.68727 4.91119 6.70503C4.44529 8.48291 1.96702 8.48904 1.50296 6.71666C1.49745 6.69401 1.47664 6.6787 1.45337 6.67809C1.14298 6.67442 0.819723 6.67503 0.483002 6.68054C0.390557 6.68238 0.307295 6.66952 0.233829 6.64319C-0.158604 6.50238 -0.0282012 5.91404 0.413822 5.91404C0.765848 5.91404 1.10869 5.91526 1.44235 5.91649C1.47235 5.91649 1.49133 5.90241 1.4999 5.87363ZM4.19734 6.29545C4.19734 5.74813 3.75409 5.30488 3.20677 5.30488C2.65944 5.30488 2.2162 5.74813 2.2162 6.29545C2.2162 6.84278 2.65944 7.28602 3.20677 7.28602C3.75409 7.28602 4.19734 6.84278 4.19734 6.29545Z" fill="#E39C9D"/>
<path id="Vector_3" d="M10.5682 10.4586C12.0436 10.4555 13.3862 10.4549 14.5959 10.4567C15.1335 10.4573 15.1525 11.222 14.547 11.2208C13.1842 11.2189 11.8557 11.2171 10.562 11.2165C10.5382 11.2165 10.5228 11.2281 10.5167 11.2514C10.0502 13.0238 7.56277 13.0311 7.10666 11.2526C7.10115 11.233 7.0834 11.2189 7.06258 11.2189C4.74655 11.2177 2.53828 11.2183 0.437137 11.2202C-0.141411 11.2208 -0.139574 10.4549 0.427342 10.4555C2.61603 10.4567 4.82553 10.4567 7.05646 10.4555C7.08095 10.4555 7.10238 10.439 7.1085 10.4151C7.40175 9.29228 8.62497 8.75965 9.63513 9.29411C10.0778 9.5286 10.3722 9.90389 10.5173 10.42C10.5247 10.4457 10.5418 10.4586 10.5682 10.4586ZM9.80104 10.8375C9.80104 10.2902 9.35779 9.84695 8.81047 9.84695C8.26314 9.84695 7.8199 10.2902 7.8199 10.8375C7.8199 11.3848 8.26314 11.8281 8.81047 11.8281C9.35779 11.8281 9.80104 11.3848 9.80104 10.8375Z" fill="#E39C9D"/>
</g>
<defs>
<clipPath id="clip0_261_7872">
<rect width="15" height="12.5836" fill="white"/>
</clipPath>
</defs>
</svg>
