<svg width="18" height="14" viewBox="0 0 18 14" fill="none" xmlns="http://www.w3.org/2000/svg">
<g id="&#240;&#159;&#166;&#134; icon &#34;Envelope&#34;">
<path id="Vector" d="M17.1804 5.13706C17.3094 5.03459 17.5011 5.13045 17.5011 5.29243V12.0524C17.5011 12.9284 16.7904 13.6391 15.9144 13.6391H2.16308C1.28709 13.6391 0.576385 12.9284 0.576385 12.0524V5.29573C0.576385 5.13045 0.764805 5.0379 0.897029 5.14037C1.63748 5.71554 2.61925 6.44608 5.99097 8.89554C6.68845 9.4046 7.86524 10.4756 9.03873 10.469C10.2188 10.4789 11.4188 9.38477 12.0898 8.89554C15.4615 6.44608 16.44 5.71224 17.1804 5.13706ZM9.03873 9.4079C9.80563 9.42113 10.9097 8.44267 11.465 8.03938C15.8516 4.85609 16.1855 4.57842 17.197 3.78507C17.3887 3.63632 17.5011 3.40493 17.5011 3.16031V2.53225C17.5011 1.65626 16.7904 0.945557 15.9144 0.945557H2.16308C1.28709 0.945557 0.576385 1.65626 0.576385 2.53225V3.16031C0.576385 3.40493 0.688776 3.63301 0.880501 3.78507C1.89202 4.57511 2.22588 4.85609 6.61242 8.03938C7.16776 8.44267 8.27183 9.42113 9.03873 9.4079Z" fill="white"/>
</g>
</svg>
