<svg width="16" height="16" viewBox="0 0 16 16" fill="none" xmlns="http://www.w3.org/2000/svg">
<g id="&#240;&#159;&#166;&#134; icon &#34;Alternate Phone&#34;">
<path id="Vector" d="M15.1326 11.3023L11.7288 9.89783C11.5834 9.83817 11.4218 9.8256 11.2683 9.86201C11.1148 9.89842 10.9778 9.98185 10.8778 10.0997L9.37037 11.8729C7.00461 10.799 5.10071 8.96598 3.98527 6.6883L5.82701 5.23701C5.94969 5.14094 6.03652 5.009 6.07436 4.86118C6.1122 4.71335 6.09898 4.55768 6.03671 4.41773L4.57791 1.14061C4.50956 0.989744 4.38868 0.86657 4.23611 0.792324C4.08354 0.718077 3.90884 0.697412 3.74214 0.733892L0.581399 1.43613C0.420678 1.47186 0.277283 1.55899 0.174617 1.68329C0.0719505 1.80758 0.0160763 1.96172 0.0161133 2.12052C0.0161133 9.62571 6.33455 15.6972 14.1179 15.6972C14.2829 15.6973 14.443 15.6435 14.5722 15.5447C14.7014 15.4458 14.7919 15.3077 14.829 15.1529L15.5584 12.1099C15.5961 11.9486 15.5742 11.7797 15.4964 11.6324C15.4187 11.485 15.2901 11.3682 15.1326 11.3023Z" fill="white"/>
</g>
</svg>
