<svg width="33" height="32" viewBox="0 0 33 32" fill="none" xmlns="http://www.w3.org/2000/svg">
<g id="&#240;&#159;&#166;&#134; icon &#34;Alternate Phone&#34;">
<path id="Vector" d="M31.8243 22.2863L24.6582 19.3295C24.3521 19.2039 24.0119 19.1775 23.6888 19.2541C23.3657 19.3308 23.0772 19.5064 22.8667 19.7546L19.6932 23.4875C14.7126 21.2267 10.7044 17.3677 8.35612 12.5726L12.2335 9.51726C12.4917 9.31501 12.6746 9.03726 12.7542 8.72604C12.8339 8.41482 12.806 8.08709 12.6749 7.79246L9.60378 0.893258C9.45989 0.575653 9.2054 0.31634 8.8842 0.160032C8.56299 0.00372381 8.19521 -0.0397816 7.84426 0.0370175L1.19007 1.51542C0.851716 1.59064 0.549831 1.77406 0.333691 2.03574C0.117552 2.29742 -7.79442e-05 2.62191 3.87491e-08 2.95624C3.87491e-08 18.7566 13.302 31.5386 29.6879 31.5386C30.0353 31.5389 30.3724 31.4257 30.6444 31.2176C30.9163 31.0095 31.1069 30.7188 31.1851 30.3929L32.7207 23.9865C32.7999 23.647 32.7538 23.2915 32.5902 22.9811C32.4266 22.6708 32.1557 22.4251 31.8243 22.2863Z" fill="#E39C9D"/>
</g>
</svg>
