<svg width="20" height="23" viewBox="0 0 20 23" fill="none" xmlns="http://www.w3.org/2000/svg">
<g clip-path="url(#clip0_3_12)">
<path d="M7.14286 5.14285C7.14286 3.56696 8.42411 2.28571 10 2.28571C11.5759 2.28571 12.8571 3.56696 12.8571 5.14285V7.28571H7.14286V5.14285ZM5 7.28571H2.14286C0.959821 7.28571 0 8.24553 0 9.42857V18.7143C0 21.0804 1.91964 23 4.28571 23H15.7143C18.0804 23 20 21.0804 20 18.7143V9.42857C20 8.24553 19.0402 7.28571 17.8571 7.28571H15V5.14285C15 2.37946 12.7634 0.142853 10 0.142853C7.23661 0.142853 5 2.37946 5 5.14285V7.28571ZM6.07143 9.42857C6.35559 9.42857 6.62811 9.54145 6.82904 9.74238C7.02997 9.94331 7.14286 10.2158 7.14286 10.5C7.14286 10.7842 7.02997 11.0567 6.82904 11.2576C6.62811 11.4585 6.35559 11.5714 6.07143 11.5714C5.78727 11.5714 5.51475 11.4585 5.31381 11.2576C5.11288 11.0567 5 10.7842 5 10.5C5 10.2158 5.11288 9.94331 5.31381 9.74238C5.51475 9.54145 5.78727 9.42857 6.07143 9.42857ZM12.8571 10.5C12.8571 10.2158 12.97 9.94331 13.171 9.74238C13.3719 9.54145 13.6444 9.42857 13.9286 9.42857C14.2127 9.42857 14.4853 9.54145 14.6862 9.74238C14.8871 9.94331 15 10.2158 15 10.5C15 10.7842 14.8871 11.0567 14.6862 11.2576C14.4853 11.4585 14.2127 11.5714 13.9286 11.5714C13.6444 11.5714 13.3719 11.4585 13.171 11.2576C12.97 11.0567 12.8571 10.7842 12.8571 10.5Z" fill="black"/>
</g>
<defs>
<clipPath id="clip0_3_12">
<rect width="20" height="22.8571" fill="white" transform="translate(0 0.142853)"/>
</clipPath>
</defs>
</svg>
