<svg width="25" height="25" viewBox="0 0 25 25" fill="none" xmlns="http://www.w3.org/2000/svg">
<path id="Vector" d="M23.6647 4.1647C24.6168 3.21255 24.6168 1.66626 23.6647 0.714111C22.7126 -0.238037 21.1663 -0.238037 20.2141 0.714111L12.1932 8.74263L4.1647 0.721728C3.21255 -0.23042 1.66626 -0.23042 0.714111 0.721728C-0.238037 1.67388 -0.238037 3.22017 0.714111 4.17231L8.74263 12.1932L0.721729 20.2217C-0.23042 21.1739 -0.23042 22.7202 0.721729 23.6723C1.67388 24.6245 3.22017 24.6245 4.17231 23.6723L12.1932 15.6438L20.2217 23.6647C21.1739 24.6168 22.7202 24.6168 23.6723 23.6647C24.6245 22.7125 24.6245 21.1663 23.6723 20.2141L15.6438 12.1932L23.6647 4.1647Z" fill="#E39C9D"/>
</svg>
