<svg width="30" height="22" viewBox="0 0 30 22" fill="none" xmlns="http://www.w3.org/2000/svg">
<g id="&#240;&#159;&#166;&#134; icon &#34;Envelope&#34;">
<path id="Vector" d="M28.6817 7.46903C28.9016 7.29422 29.2287 7.45775 29.2287 7.73406V19.2659C29.2287 20.7602 28.0163 21.9726 26.5219 21.9726H3.06355C1.5692 21.9726 0.356812 20.7602 0.356812 19.2659V7.7397C0.356812 7.45775 0.678237 7.29986 0.903798 7.47467C2.16694 8.45586 3.84174 9.70209 9.59355 13.8806C10.7834 14.749 12.7909 16.5761 14.7927 16.5648C16.8059 16.5817 18.8528 14.7152 19.9976 13.8806C25.7494 9.70209 27.4185 8.45022 28.6817 7.46903ZM14.7927 14.7547C16.101 14.7772 17.9844 13.1081 18.9318 12.4201C26.4148 6.98971 26.9843 6.51603 28.7099 5.16266C29.0369 4.9089 29.2287 4.51417 29.2287 4.09688V3.02547C29.2287 1.53112 28.0163 0.318729 26.5219 0.318729H3.06355C1.5692 0.318729 0.356812 1.53112 0.356812 3.02547V4.09688C0.356812 4.51417 0.548539 4.90327 0.875603 5.16266C2.60115 6.51039 3.17069 6.98971 10.6537 12.4201C11.601 13.1081 13.4845 14.7772 14.7927 14.7547Z" fill="#E39C9D"/>
</g>
</svg>
