<svg width="25" height="25" viewBox="0 0 25 25" fill="none" xmlns="http://www.w3.org/2000/svg">
<path id="Vector" d="M23.0273 0.802002C21.958 -0.267334 20.2295 -0.267334 19.1602 0.802002L17.6904 2.26685L22.4707 7.04712L23.9404 5.57739C25.0098 4.50806 25.0098 2.77954 23.9404 1.71021L23.0273 0.802002ZM8.41797 11.5442C8.12012 11.842 7.89062 12.2083 7.75879 12.6135L6.31348 16.9495C6.17188 17.3694 6.28418 17.8333 6.59668 18.1506C6.90918 18.468 7.37305 18.5754 7.79785 18.4338L12.1338 16.9885C12.5342 16.8567 12.9004 16.6272 13.2031 16.3293L21.3721 8.15552L16.5869 3.37036L8.41797 11.5442ZM4.6875 2.86743C2.09961 2.86743 0 4.96704 0 7.55493V20.0549C0 22.6428 2.09961 24.7424 4.6875 24.7424H17.1875C19.7754 24.7424 21.875 22.6428 21.875 20.0549V15.3674C21.875 14.5032 21.1768 13.8049 20.3125 13.8049C19.4482 13.8049 18.75 14.5032 18.75 15.3674V20.0549C18.75 20.9192 18.0518 21.6174 17.1875 21.6174H4.6875C3.82324 21.6174 3.125 20.9192 3.125 20.0549V7.55493C3.125 6.69067 3.82324 5.99243 4.6875 5.99243H9.375C10.2393 5.99243 10.9375 5.29419 10.9375 4.42993C10.9375 3.56567 10.2393 2.86743 9.375 2.86743H4.6875Z" fill="#E39C9D"/>
</svg>
