<svg width="23" height="27" viewBox="0 0 23 27" fill="none" xmlns="http://www.w3.org/2000/svg">
<g id="trash-can-solid (1) 2" clip-path="url(#clip0_300_1389)">
<path id="Vector" d="M16.0589 0.908705C15.7817 0.349107 15.2118 0 14.5906 0H8.40937C7.78817 0 7.2183 0.349107 6.94107 0.908705L6.57143 1.64286H1.64286C0.734152 1.64286 0 2.37701 0 3.28571C0 4.19442 0.734152 4.92857 1.64286 4.92857H21.3571C22.2658 4.92857 23 4.19442 23 3.28571C23 2.37701 22.2658 1.64286 21.3571 1.64286H16.4286L16.0589 0.908705ZM21.3571 6.57143H1.64286V23C1.64286 24.8123 3.11629 26.2857 4.92857 26.2857H18.0714C19.8837 26.2857 21.3571 24.8123 21.3571 23V6.57143ZM16.4286 9.85714C16.8804 9.85714 17.25 10.2268 17.25 10.6786V22.1786C17.25 22.6304 16.8804 23 16.4286 23C15.9768 23 15.6071 22.6304 15.6071 22.1786V10.6786C15.6071 10.2268 15.9768 9.85714 16.4286 9.85714ZM11.5 9.85714C11.9518 9.85714 12.3214 10.2268 12.3214 10.6786V22.1786C12.3214 22.6304 11.9518 23 11.5 23C11.0482 23 10.6786 22.6304 10.6786 22.1786V10.6786C10.6786 10.2268 11.0482 9.85714 11.5 9.85714ZM6.57143 9.85714C7.02321 9.85714 7.39286 10.2268 7.39286 10.6786V22.1786C7.39286 22.6304 7.02321 23 6.57143 23C6.11964 23 5.75 22.6304 5.75 22.1786V10.6786C5.75 10.2268 6.11964 9.85714 6.57143 9.85714Z" fill="#E39C9D"/>
</g>
<defs>
<clipPath id="clip0_300_1389">
<rect width="23" height="26.2857" fill="white" transform="matrix(-1 0 0 1 23 0)"/>
</clipPath>
</defs>
</svg>
