<svg width="25" height="28" viewBox="0 0 25 28" fill="none" xmlns="http://www.w3.org/2000/svg">
<g id="instagram (3) 2" clip-path="url(#clip0_189_9073)">
<path id="Vector" d="M12.5679 7.71076C9.0898 7.71076 6.28433 10.5162 6.28433 13.9944C6.28433 17.4725 9.0898 20.278 12.5679 20.278C16.046 20.278 18.8515 17.4725 18.8515 13.9944C18.8515 10.5162 16.046 7.71076 12.5679 7.71076ZM12.5679 18.0795C10.3203 18.0795 8.48276 16.2475 8.48276 13.9944C8.48276 11.7412 10.3148 9.9092 12.5679 9.9092C14.821 9.9092 16.6531 11.7412 16.6531 13.9944C16.6531 16.2475 14.8156 18.0795 12.5679 18.0795ZM20.5742 7.45373C20.5742 8.26858 19.9179 8.91936 19.1085 8.91936C18.2937 8.91936 17.6429 8.26311 17.6429 7.45373C17.6429 6.64436 18.2992 5.98811 19.1085 5.98811C19.9179 5.98811 20.5742 6.64436 20.5742 7.45373ZM24.7359 8.94123C24.6429 6.97795 24.1945 5.23889 22.7562 3.80608C21.3234 2.37326 19.5843 1.92483 17.621 1.82639C15.5976 1.71155 9.53276 1.71155 7.50933 1.82639C5.55151 1.91936 3.81245 2.3678 2.37417 3.80061C0.935889 5.23342 0.49292 6.97248 0.394482 8.93576C0.279639 10.9592 0.279639 17.024 0.394482 19.0475C0.487451 21.0108 0.935889 22.7498 2.37417 24.1826C3.81245 25.6155 5.54605 26.0639 7.50933 26.1623C9.53276 26.2772 15.5976 26.2772 17.621 26.1623C19.5843 26.0694 21.3234 25.6209 22.7562 24.1826C24.189 22.7498 24.6375 21.0108 24.7359 19.0475C24.8507 17.024 24.8507 10.9647 24.7359 8.94123ZM22.1218 21.2186C21.6953 22.2905 20.8695 23.1162 19.7921 23.5483C18.1789 24.1881 14.3507 24.0405 12.5679 24.0405C10.7851 24.0405 6.95151 24.1826 5.3437 23.5483C4.27183 23.1217 3.44605 22.2959 3.01401 21.2186C2.37417 19.6053 2.52183 15.7772 2.52183 13.9944C2.52183 12.2115 2.37964 8.37795 3.01401 6.77014C3.44058 5.69826 4.26636 4.87248 5.3437 4.44045C6.95698 3.80061 10.7851 3.94826 12.5679 3.94826C14.3507 3.94826 18.1843 3.80608 19.7921 4.44045C20.864 4.86701 21.6898 5.6928 22.1218 6.77014C22.7617 8.38342 22.614 12.2115 22.614 13.9944C22.614 15.7772 22.7617 19.6108 22.1218 21.2186Z" fill="#E39C9D"/>
</g>
<defs>
<clipPath id="clip0_189_9073">
<rect width="24.5" height="28" fill="white" transform="translate(0.3125)"/>
</clipPath>
</defs>
</svg>
