<svg width="28" height="26" viewBox="0 0 28 26" fill="none" xmlns="http://www.w3.org/2000/svg">
<g id="&#240;&#159;&#166;&#134; icon &#34;Alternate Phone&#34;">
<path id="Vector" d="M26.5998 18.2807L20.7931 15.8848C20.5451 15.7831 20.2694 15.7616 20.0076 15.8237C19.7458 15.8858 19.512 16.0282 19.3415 16.2293L16.7699 19.2541C12.7342 17.4221 9.48631 14.2952 7.58349 10.4097L10.7253 7.93393C10.9346 7.77005 11.0827 7.54498 11.1473 7.2928C11.2118 7.04062 11.1893 6.77506 11.083 6.53632L8.59447 0.945876C8.47788 0.688521 8.27167 0.478398 8.01139 0.351741C7.75112 0.225084 7.4531 0.189832 7.16873 0.252062L1.77682 1.45001C1.50265 1.51097 1.25803 1.6596 1.08289 1.87164C0.907753 2.08368 0.812437 2.34661 0.8125 2.61752C0.8125 15.4206 11.5911 25.7779 24.8687 25.7779C25.1502 25.7781 25.4234 25.6864 25.6437 25.5178C25.8641 25.3491 26.0185 25.1136 26.0819 24.8495L27.3262 19.6584C27.3904 19.3833 27.353 19.0952 27.2204 18.8438C27.0878 18.5923 26.8684 18.3932 26.5998 18.2807Z" fill="#E39C9D"/>
</g>
</svg>
