<svg width="20" height="23" viewBox="0 0 20 23" fill="none" xmlns="http://www.w3.org/2000/svg">
<g id="bag-shopping-solid 2" clip-path="url(#clip0_20_284)">
<path id="Vector" d="M7.14286 5.14258C7.14286 3.56669 8.42411 2.28544 10 2.28544C11.5759 2.28544 12.8571 3.56669 12.8571 5.14258V7.28544H7.14286V5.14258ZM5 7.28544H2.14286C0.959821 7.28544 0 8.24526 0 9.42829V18.714C0 21.0801 1.91964 22.9997 4.28571 22.9997H15.7143C18.0804 22.9997 20 21.0801 20 18.714V9.42829C20 8.24526 19.0402 7.28544 17.8571 7.28544H15V5.14258C15 2.37919 12.7634 0.142578 10 0.142578C7.23661 0.142578 5 2.37919 5 5.14258V7.28544ZM6.07143 9.42829C6.35559 9.42829 6.62811 9.54117 6.82904 9.74211C7.02997 9.94304 7.14286 10.2156 7.14286 10.4997C7.14286 10.7839 7.02997 11.0564 6.82904 11.2573C6.62811 11.4583 6.35559 11.5711 6.07143 11.5711C5.78727 11.5711 5.51475 11.4583 5.31381 11.2573C5.11288 11.0564 5 10.7839 5 10.4997C5 10.2156 5.11288 9.94304 5.31381 9.74211C5.51475 9.54117 5.78727 9.42829 6.07143 9.42829ZM12.8571 10.4997C12.8571 10.2156 12.97 9.94304 13.171 9.74211C13.3719 9.54117 13.6444 9.42829 13.9286 9.42829C14.2127 9.42829 14.4853 9.54117 14.6862 9.74211C14.8871 9.94304 15 10.2156 15 10.4997C15 10.7839 14.8871 11.0564 14.6862 11.2573C14.4853 11.4583 14.2127 11.5711 13.9286 11.5711C13.6444 11.5711 13.3719 11.4583 13.171 11.2573C12.97 11.0564 12.8571 10.7839 12.8571 10.4997Z" fill="white"/>
</g>
<defs>
<clipPath id="clip0_20_284">
<rect width="20" height="22.8571" fill="white" transform="translate(0 0.142578)"/>
</clipPath>
</defs>
</svg>
