<svg width="14" height="10" viewBox="0 0 14 10" fill="none" xmlns="http://www.w3.org/2000/svg">
<path d="M13.3707 0.289386C13.2802 0.197689 13.1725 0.124907 13.0539 0.0752394C12.9352 0.0255714 12.808 0 12.6794 0C12.5509 0 12.4236 0.0255714 12.305 0.0752394C12.1863 0.124907 12.0786 0.197689 11.9881 0.289386L4.73404 7.58766L1.68637 4.51573C1.59239 4.42451 1.48144 4.35279 1.35987 4.30465C1.2383 4.25652 1.10848 4.23291 0.977831 4.23518C0.84718 4.23745 0.718253 4.26555 0.598412 4.31789C0.47857 4.37022 0.370162 4.44576 0.279376 4.54019C0.18859 4.63462 0.117204 4.74609 0.0692941 4.86824C0.0213843 4.99039 -0.00211151 5.12082 0.000148896 5.25209C0.0024093 5.38336 0.0303815 5.5129 0.082468 5.63331C0.134554 5.75372 0.209735 5.86265 0.303718 5.95386L4.04272 9.71062C4.13324 9.80231 4.24093 9.87509 4.35958 9.92476C4.47824 9.97443 4.6055 10 4.73404 10C4.86258 10 4.98985 9.97443 5.10851 9.92476C5.22716 9.87509 5.33485 9.80231 5.42537 9.71062L13.3707 1.72752C13.4696 1.63591 13.5485 1.52472 13.6024 1.40096C13.6564 1.2772 13.6842 1.14356 13.6842 1.00845C13.6842 0.873344 13.6564 0.7397 13.6024 0.615943C13.5485 0.492186 13.4696 0.380998 13.3707 0.289386Z" fill="black"/>
</svg>
