<svg width="83" height="62" viewBox="0 0 83 62" fill="none" xmlns="http://www.w3.org/2000/svg">
<g id="&#240;&#159;&#166;&#134; icon &#34;Envelope&#34;">
<path id="Vector" d="M80.8807 20.4174C81.5087 19.9183 82.4426 20.3852 82.4426 21.1742V54.103C82.4426 58.37 78.9807 61.832 74.7136 61.832H7.72899C3.46195 61.832 0 58.37 0 54.103V21.1903C0 20.3852 0.917818 19.9344 1.5619 20.4335C5.16877 23.2353 9.95108 26.7939 26.3752 38.7255C29.7727 41.2052 35.5051 46.4223 41.2213 46.3901C46.9697 46.4384 52.8148 41.1086 56.0835 38.7255C72.5076 26.7939 77.2738 23.2192 80.8807 20.4174ZM41.2213 41.2213C44.957 41.2857 50.3351 36.5195 53.0402 34.5551C74.4077 19.0488 76.034 17.6962 80.9612 13.8317C81.8951 13.1071 82.4426 11.9799 82.4426 10.7884V7.729C82.4426 3.46195 78.9807 0 74.7136 0H7.72899C3.46195 0 0 3.46195 0 7.729V10.7884C0 11.9799 0.54747 13.091 1.48139 13.8317C6.40863 17.6801 8.03494 19.0488 29.4024 34.5551C32.1075 36.5195 37.4856 41.2857 41.2213 41.2213Z" fill="#E39C9D"/>
</g>
</svg>
