<svg width="64" height="74" viewBox="0 0 64 74" fill="none" xmlns="http://www.w3.org/2000/svg">
<g id="instagram (3) 5" clip-path="url(#clip0_83_3729)">
<path id="Vector" d="M32.0123 20.1428C22.9266 20.1428 15.598 27.4714 15.598 36.5571C15.598 45.6428 22.9266 52.9714 32.0123 52.9714C41.098 52.9714 48.4266 45.6428 48.4266 36.5571C48.4266 27.4714 41.098 20.1428 32.0123 20.1428ZM32.0123 47.2285C26.1409 47.2285 21.3409 42.4428 21.3409 36.5571C21.3409 30.6714 26.1266 25.8857 32.0123 25.8857C37.898 25.8857 42.6837 30.6714 42.6837 36.5571C42.6837 42.4428 37.8837 47.2285 32.0123 47.2285ZM52.9266 19.4714C52.9266 21.6 51.2123 23.3 49.098 23.3C46.9694 23.3 45.2694 21.5857 45.2694 19.4714C45.2694 17.3571 46.9837 15.6428 49.098 15.6428C51.2123 15.6428 52.9266 17.3571 52.9266 19.4714ZM63.798 23.3571C63.5552 18.2285 62.3837 13.6857 58.6266 9.94282C54.8837 6.19996 50.3409 5.02853 45.2123 4.77139C39.9266 4.47139 24.0837 4.47139 18.798 4.77139C13.6837 5.01424 9.14088 6.18567 5.38373 9.92853C1.62659 13.6714 0.469447 18.2142 0.212305 23.3428C-0.0876953 28.6285 -0.0876953 44.4714 0.212305 49.7571C0.455162 54.8857 1.62659 59.4285 5.38373 63.1714C9.14088 66.9142 13.6694 68.0857 18.798 68.3428C24.0837 68.6428 39.9266 68.6428 45.2123 68.3428C50.3409 68.1 54.8837 66.9285 58.6266 63.1714C62.3694 59.4285 63.5409 54.8857 63.798 49.7571C64.098 44.4714 64.098 28.6428 63.798 23.3571ZM56.9694 55.4285C55.8552 58.2285 53.698 60.3857 50.8837 61.5142C46.6694 63.1857 36.6694 62.8 32.0123 62.8C27.3552 62.8 17.3409 63.1714 13.1409 61.5142C10.3409 60.4 8.18373 58.2428 7.05516 55.4285C5.38373 51.2142 5.76945 41.2142 5.76945 36.5571C5.76945 31.9 5.39802 21.8857 7.05516 17.6857C8.16945 14.8857 10.3266 12.7285 13.1409 11.6C17.3552 9.92853 27.3552 10.3142 32.0123 10.3142C36.6694 10.3142 46.6837 9.94281 50.8837 11.6C53.6837 12.7142 55.8409 14.8714 56.9694 17.6857C58.6409 21.9 58.2552 31.9 58.2552 36.5571C58.2552 41.2142 58.6409 51.2285 56.9694 55.4285Z" fill="#E39C9D"/>
</g>
<defs>
<clipPath id="clip0_83_3729">
<rect width="64" height="73.1429" fill="white"/>
</clipPath>
</defs>
</svg>
