<svg width="36" height="28" viewBox="0 0 36 28" fill="none" xmlns="http://www.w3.org/2000/svg">
<g id="&#240;&#159;&#166;&#134; icon &#34;Envelope&#34;">
<path id="Vector" d="M34.9559 9.46094C35.2273 9.24521 35.6309 9.44703 35.6309 9.78802V24.0195C35.6309 25.8637 34.1347 27.3599 32.2905 27.3599H3.3404C1.49622 27.3599 0 25.8637 0 24.0195V9.79498C0 9.44703 0.396673 9.25217 0.675039 9.4679C2.23389 10.6788 4.30077 12.2168 11.3991 17.3735C12.8675 18.4452 15.345 20.7 17.8155 20.6861C20.2999 20.707 22.8261 18.4035 24.2388 17.3735C31.3371 12.2168 33.397 10.6718 34.9559 9.46094ZM17.8155 18.4522C19.43 18.48 21.7544 16.4201 22.9235 15.5711C32.1583 8.86941 32.8612 8.28484 34.9907 6.61464C35.3943 6.30148 35.6309 5.81434 35.6309 5.29936V3.97712C35.6309 2.13294 34.1347 0.636719 32.2905 0.636719H3.3404C1.49622 0.636719 0 2.13294 0 3.97712V5.29936C0 5.81434 0.236612 6.29452 0.640243 6.61464C2.76975 8.27788 3.47263 8.86941 12.7074 15.5711C13.8766 16.4201 16.2009 18.48 17.8155 18.4522Z" fill="#E39C9D"/>
</g>
</svg>
