<svg width="31" height="32" viewBox="0 0 31 32" fill="none" xmlns="http://www.w3.org/2000/svg">
<g id="Capa_1" clip-path="url(#clip0_57_867)">
<path id="Vector" d="M28.0763 15.6175C30.4179 17.6792 31.4176 21.0071 30.8222 23.984C30.058 27.7785 27.1433 30.4444 23.3044 30.9953C22.6734 31.0842 22.038 31.0975 21.4116 31.0264C19.0345 30.7687 17.0972 29.809 15.5821 28.1562C15.5288 28.094 15.471 28.094 15.4133 28.1562C13.6982 29.9734 11.5966 30.9376 9.11287 31.0531C7.77547 31.1198 6.44252 30.8532 5.10068 30.2578C2.03045 28.8937 0.0843454 25.8324 0.00436836 22.5178C-0.0622792 19.8074 0.893002 17.5103 2.86577 15.6131C2.93686 15.5464 2.93686 15.4798 2.86577 15.4176C0.333163 13.1605 -0.613232 9.47707 0.395367 6.16691C1.67056 1.99922 5.92267 -0.684458 10.3925 0.159744C12.4053 0.541857 14.0714 1.45271 15.3911 2.90562C15.4577 2.97671 15.5244 2.97671 15.5866 2.90562C17.817 0.497425 21.3138 -0.577822 24.4507 0.306369C27.5565 1.18167 29.6003 3.14111 30.5778 6.1758C31.6575 9.51706 30.5778 13.1649 28.0719 15.4576C28.0141 15.5109 28.0141 15.5598 28.0719 15.6131M21.0694 15.5331C21.0694 12.454 18.5724 9.95693 15.4888 9.95693C12.4053 9.95693 9.91264 12.454 9.91264 15.5331C9.91264 18.6122 12.4097 21.1093 15.4888 21.1093C18.5679 21.1093 21.0694 18.6122 21.0694 15.5331Z" fill="#E39C9D"/>
</g>
<defs>
<clipPath id="clip0_57_867">
<rect width="31" height="31.0666" fill="white"/>
</clipPath>
</defs>
</svg>
