<svg width="61" height="44" viewBox="0 0 61 44" fill="none" xmlns="http://www.w3.org/2000/svg">
<g id="Capa_1" clip-path="url(#clip0_156_349)">
<path id="Vector" d="M36.4643 35.7664H24.532C24.4181 35.7664 24.3611 35.8193 24.354 35.9203C24.1493 39.5465 21.8518 42.4644 18.0399 43.5861C12.9787 45.0795 7.71989 42.3843 6.40119 37.755C6.18408 36.9955 6.08264 35.9155 6.10222 34.5118C6.14137 31.4672 6.14493 28.2705 6.11111 24.9231C6.11111 24.8157 6.16984 24.7628 6.28908 24.7628H10.4765C10.578 24.7628 10.6296 24.8093 10.6296 24.9007L10.626 28.49C10.626 28.5701 10.7203 28.6198 10.8004 28.5813C15.1712 26.3444 20.3712 27.7257 22.9979 31.4945C23.062 31.5858 23.1723 31.6403 23.2916 31.6403H33.6934C34.4943 31.6403 35.1438 31.0538 35.1438 30.3344V5.43483C35.1438 4.71375 34.496 4.13049 33.6952 4.13369C26.5981 4.1369 19.428 4.1369 12.1921 4.13369C11.1688 4.13369 10.6456 4.60159 10.6278 5.53578C10.6153 6.24884 10.6118 7.10131 10.6224 8.09319C10.6224 8.18613 10.7043 8.26144 10.8057 8.25824H22.5797C23.6208 8.25824 24.2294 8.71011 24.4038 9.60905C24.4074 9.62828 24.4074 9.65072 24.4038 9.67155C24.1992 10.5513 23.6582 10.9951 22.7808 10.9967C15.5805 11.0127 8.51716 11.0127 1.59266 10.9999C-0.500171 10.9967 -0.622964 8.27426 1.7724 8.26305C3.20144 8.25503 4.61979 8.25503 6.02569 8.25824C6.07374 8.25824 6.11467 8.22459 6.11645 8.18132C6.15916 6.86416 5.96341 5.414 6.33357 4.18176C6.88703 2.33581 8.17547 1.06512 10.1953 0.366474C10.868 0.132525 12.0106 0.0123463 13.6193 -0.0020752C13.6193 -0.0020752 19.7661 0.00112958 32.0597 0.00593675C33.6792 0.00593675 34.8253 0.121309 35.4962 0.35045C38.4201 1.34073 39.7513 3.57446 39.6605 6.31134C39.6427 6.88339 39.6356 7.47788 39.6445 8.0964C39.648 8.21497 39.7139 8.27266 39.8456 8.26946C41.3333 8.23901 42.7321 8.24542 44.0455 8.28868C45.487 8.33836 46.6366 8.89919 47.6314 9.79012C50.7689 12.6007 53.7106 15.2591 56.4565 17.7636C57.4834 18.701 57.9923 19.8868 57.9906 21.3225C57.9781 24.8045 57.9745 28.1968 57.9817 31.4945C57.9817 31.597 58.0368 31.6435 58.149 31.6403C59.3431 31.5986 60.1742 31.9239 60.6386 32.6145C61.0871 33.2795 61.1156 33.959 60.7205 34.656C60.3023 35.3931 59.5139 35.7616 58.3554 35.7648C57.2253 35.7681 56.1344 35.7648 55.0862 35.7616C54.9848 35.7584 54.8994 35.8338 54.894 35.9235C54.7837 38.0194 54.0202 39.7884 52.6001 41.2274C49.5765 44.2944 44.5527 44.8664 40.7692 42.6279C38.2332 41.128 36.8611 38.8975 36.6565 35.9331C36.6512 35.8209 36.5871 35.7648 36.4607 35.7648M39.648 20.5502C39.648 20.5998 39.6907 20.6383 39.7459 20.6383H53.0628C53.1482 20.6383 53.1909 20.5454 53.1304 20.4877L44.1523 12.4148C44.1345 12.3988 44.1095 12.3908 44.0846 12.3908L39.7459 12.386C39.6907 12.386 39.648 12.4245 39.648 12.4741V20.5534M19.8711 35.7664C19.8711 33.4638 17.7961 31.597 15.2406 31.597C12.685 31.597 10.61 33.4654 10.61 35.7664C10.61 38.0675 12.685 39.9359 15.2406 39.9359C17.7961 39.9359 19.8711 38.0675 19.8711 35.7664ZM50.4201 35.7664C50.4201 33.4638 48.345 31.597 45.7895 31.597C43.234 31.597 41.1589 33.4654 41.1589 35.7664C41.1589 38.0675 43.234 39.9359 45.7895 39.9359C48.345 39.9359 50.4201 38.0675 50.4201 35.7664Z" fill="#E39C9D"/>
<path id="Vector_2" d="M27.4168 15.1586C27.4168 15.9037 26.7441 16.5094 25.9166 16.5094H4.56827C3.74075 16.5094 3.06805 15.9037 3.06805 15.1586V15.1153C3.06805 14.3702 3.74075 13.7645 4.56827 13.7645H25.9166C26.7441 13.7645 27.4168 14.3702 27.4168 15.1153V15.1586Z" fill="#E39C9D"/>
<path id="Vector_3" d="M24.3576 20.6788C24.3576 21.4239 23.6831 22.0296 22.8556 22.0264L1.51442 21.9928C0.686898 21.9895 0.0177612 21.3854 0.0177612 20.6403V20.5971C0.0177612 19.852 0.692237 19.2463 1.51976 19.2495L22.861 19.2831C23.6885 19.2863 24.3576 19.8904 24.3576 20.6355V20.6788Z" fill="#E39C9D"/>
</g>
<defs>
<clipPath id="clip0_156_349">
<rect width="61" height="44" fill="white"/>
</clipPath>
</defs>
</svg>
