<svg width="50" height="44" viewBox="0 0 50 44" fill="none" xmlns="http://www.w3.org/2000/svg">
<g id="star-solid (1) 16" clip-path="url(#clip0_156_362)">
<path id="Vector" d="M27.2336 1.54688C26.7781 0.601562 25.8156 0 24.7586 0C23.7016 0 22.7476 0.601562 22.2836 1.54688L16.7578 12.9164L4.41718 14.7383C3.38593 14.893 2.52655 15.6148 2.20859 16.6031C1.89062 17.5914 2.14843 18.6828 2.88749 19.4133L11.8422 28.2734L9.72812 40.7945C9.55624 41.8258 9.98593 42.8742 10.8367 43.4844C11.6875 44.0945 12.8133 44.1719 13.7414 43.682L24.7672 37.7953L35.793 43.682C36.7211 44.1719 37.8469 44.1031 38.6976 43.4844C39.5484 42.8656 39.9781 41.8258 39.8062 40.7945L37.6836 28.2734L46.6383 19.4133C47.3773 18.6828 47.6437 17.5914 47.3172 16.6031C46.9906 15.6148 46.1398 14.893 45.1086 14.7383L32.7594 12.9164L27.2336 1.54688Z" fill="#E39C9D"/>
</g>
<defs>
<clipPath id="clip0_156_362">
<rect width="49.5" height="44" fill="white"/>
</clipPath>
</defs>
</svg>
