<svg width="56" height="39" viewBox="0 0 56 39" fill="none" xmlns="http://www.w3.org/2000/svg">
<g id="Vector">
<path id="Vector_2" d="M49.7778 4.15107C50.6333 4.15107 51.3333 4.77373 51.3333 5.53476V8.30214H4.66667V5.53476C4.66667 4.77373 5.36667 4.15107 6.22222 4.15107H49.7778ZM51.3333 16.6043V33.2086C51.3333 33.9696 50.6333 34.5923 49.7778 34.5923H6.22222C5.36667 34.5923 4.66667 33.9696 4.66667 33.2086V16.6043H51.3333ZM6.22222 0C2.79028 0 0 2.482 0 5.53476V33.2086C0 36.2613 2.79028 38.7433 6.22222 38.7433H49.7778C53.2097 38.7433 56 36.2613 56 33.2086V5.53476C56 2.482 53.2097 0 49.7778 0H6.22222ZM11.6667 26.2901C10.3736 26.2901 9.33333 27.2155 9.33333 28.3657C9.33333 29.5159 10.3736 30.4412 11.6667 30.4412H16.3333C17.6264 30.4412 18.6667 29.5159 18.6667 28.3657C18.6667 27.2155 17.6264 26.2901 16.3333 26.2901H11.6667ZM24.1111 26.2901C22.8181 26.2901 21.7778 27.2155 21.7778 28.3657C21.7778 29.5159 22.8181 30.4412 24.1111 30.4412H35C36.2931 30.4412 37.3333 29.5159 37.3333 28.3657C37.3333 27.2155 36.2931 26.2901 35 26.2901H24.1111Z" fill="#E39C9D"/>
</g>
</svg>
